<?xml version="1.0" encoding="UTF-8"?>
<svg id="Layer_1" xmlns="http://www.w3.org/2000/svg" xmlns:xlink="http://www.w3.org/1999/xlink" version="1.1" viewBox="0 0 141 140">
  <!-- Generator: Adobe Illustrator 29.5.0, SVG Export Plug-In . SVG Version: 2.1.0 Build 137)  -->
  <defs>
    <style>
      .st0 {
        mask: url(#mask);
      }

      .st1 {
        fill: #fff;
        fill-rule: evenodd;
      }

      .st2 {
        fill: url(#linear-gradient2);
      }

      .st3 {
        fill: url(#linear-gradient1);
      }

      .st4 {
        fill: url(#linear-gradient9);
      }

      .st5 {
        fill: url(#linear-gradient3);
      }

      .st6 {
        fill: url(#linear-gradient6);
      }

      .st7 {
        fill: url(#linear-gradient8);
      }

      .st8 {
        fill: url(#linear-gradient7);
      }

      .st9 {
        fill: url(#linear-gradient5);
      }

      .st10 {
        fill: url(#linear-gradient4);
      }

      .st11 {
        fill: url(#linear-gradient18);
      }

      .st12 {
        fill: url(#linear-gradient13);
      }

      .st13 {
        fill: url(#linear-gradient12);
      }

      .st14 {
        fill: url(#linear-gradient15);
      }

      .st15 {
        fill: url(#linear-gradient16);
      }

      .st16 {
        fill: url(#linear-gradient11);
      }

      .st17 {
        fill: url(#linear-gradient10);
      }

      .st18 {
        fill: url(#linear-gradient17);
      }

      .st19 {
        fill: url(#linear-gradient14);
      }

      .st20 {
        fill: url(#linear-gradient19);
      }

      .st21 {
        fill: url(#linear-gradient23);
      }

      .st22 {
        fill: url(#linear-gradient22);
      }

      .st23 {
        fill: url(#linear-gradient24);
      }

      .st24 {
        fill: url(#linear-gradient25);
      }

      .st25 {
        fill: url(#linear-gradient21);
      }

      .st26 {
        fill: url(#linear-gradient20);
      }

      .st27 {
        fill: url(#linear-gradient27);
      }

      .st28 {
        fill: url(#linear-gradient26);
      }

      .st29 {
        fill: url(#New_Gradient_Swatch);
      }

      .st30 {
        fill: url(#linear-gradient);
      }

      .st31 {
        fill: #3caa9f;
      }
    </style>
    <linearGradient id="linear-gradient" x1="70.56" y1="122.99" x2="70.27" y2="130.92" gradientTransform="translate(0 142.36) scale(1 -1)" gradientUnits="userSpaceOnUse">
      <stop offset="0" stop-color="#3caa9f"/>
      <stop offset=".05" stop-color="#3caa9f"/>
      <stop offset=".13" stop-color="#37bdb0"/>
      <stop offset=".22" stop-color="#13b1a2"/>
      <stop offset=".32" stop-color="#249c90"/>
      <stop offset=".41" stop-color="#27b7a8"/>
      <stop offset=".52" stop-color="#0f9184"/>
      <stop offset=".66" stop-color="#1ccfbd"/>
      <stop offset="1" stop-color="#04aa99"/>
    </linearGradient>
    <linearGradient id="linear-gradient1" x1="48.04" y1="111.5" x2="45.64" y2="132.03" gradientTransform="translate(0 142.36) scale(1 -1)" gradientUnits="userSpaceOnUse">
      <stop offset="0" stop-color="#3caa9f"/>
      <stop offset=".05" stop-color="#3caa9f"/>
      <stop offset=".13" stop-color="#37bdb0"/>
      <stop offset=".22" stop-color="#13b1a2"/>
      <stop offset=".32" stop-color="#249c90"/>
      <stop offset=".41" stop-color="#27b7a8"/>
      <stop offset=".52" stop-color="#0f9184"/>
      <stop offset=".66" stop-color="#1ccfbd"/>
      <stop offset="1" stop-color="#04aa99"/>
    </linearGradient>
    <linearGradient id="linear-gradient2" x1="31.58" y1="92.6" x2="24.25" y2="120.81" gradientTransform="translate(0 142.36) scale(1 -1)" gradientUnits="userSpaceOnUse">
      <stop offset="0" stop-color="#3caa9f"/>
      <stop offset=".05" stop-color="#3caa9f"/>
      <stop offset=".13" stop-color="#37bdb0"/>
      <stop offset=".22" stop-color="#13b1a2"/>
      <stop offset=".32" stop-color="#249c90"/>
      <stop offset=".41" stop-color="#27b7a8"/>
      <stop offset=".52" stop-color="#0f9184"/>
      <stop offset=".66" stop-color="#1ccfbd"/>
      <stop offset="1" stop-color="#04aa99"/>
    </linearGradient>
    <linearGradient id="linear-gradient3" x1="24.83" y1="72.13" x2="10.42" y2="97.51" gradientTransform="translate(0 142.36) scale(1 -1)" gradientUnits="userSpaceOnUse">
      <stop offset="0" stop-color="#3caa9f"/>
      <stop offset=".05" stop-color="#3caa9f"/>
      <stop offset=".13" stop-color="#37bdb0"/>
      <stop offset=".22" stop-color="#13b1a2"/>
      <stop offset=".32" stop-color="#249c90"/>
      <stop offset=".41" stop-color="#27b7a8"/>
      <stop offset=".52" stop-color="#0f9184"/>
      <stop offset=".66" stop-color="#1ccfbd"/>
      <stop offset="1" stop-color="#04aa99"/>
    </linearGradient>
    <linearGradient id="linear-gradient4" x1="22.39" y1="47.54" x2="13.55" y2="75.16" gradientTransform="translate(0 142.36) scale(1 -1)" gradientUnits="userSpaceOnUse">
      <stop offset="0" stop-color="#3caa9f"/>
      <stop offset=".05" stop-color="#3caa9f"/>
      <stop offset=".13" stop-color="#37bdb0"/>
      <stop offset=".22" stop-color="#13b1a2"/>
      <stop offset=".32" stop-color="#249c90"/>
      <stop offset=".41" stop-color="#27b7a8"/>
      <stop offset=".52" stop-color="#0f9184"/>
      <stop offset=".66" stop-color="#1ccfbd"/>
      <stop offset="1" stop-color="#04aa99"/>
    </linearGradient>
    <linearGradient id="linear-gradient5" x1="28.35" y1="28.31" x2="25.6" y2="50.01" gradientTransform="translate(0 142.36) scale(1 -1)" gradientUnits="userSpaceOnUse">
      <stop offset="0" stop-color="#3caa9f"/>
      <stop offset=".05" stop-color="#3caa9f"/>
      <stop offset=".13" stop-color="#37bdb0"/>
      <stop offset=".22" stop-color="#13b1a2"/>
      <stop offset=".32" stop-color="#249c90"/>
      <stop offset=".41" stop-color="#27b7a8"/>
      <stop offset=".52" stop-color="#0f9184"/>
      <stop offset=".66" stop-color="#1ccfbd"/>
      <stop offset="1" stop-color="#04aa99"/>
    </linearGradient>
    <linearGradient id="linear-gradient6" x1="45.92" y1="17.82" x2="45.15" y2="30.84" gradientTransform="translate(0 142.36) scale(1 -1)" gradientUnits="userSpaceOnUse">
      <stop offset="0" stop-color="#3caa9f"/>
      <stop offset=".05" stop-color="#3caa9f"/>
      <stop offset=".13" stop-color="#37bdb0"/>
      <stop offset=".22" stop-color="#13b1a2"/>
      <stop offset=".32" stop-color="#249c90"/>
      <stop offset=".41" stop-color="#27b7a8"/>
      <stop offset=".52" stop-color="#0f9184"/>
      <stop offset=".66" stop-color="#1ccfbd"/>
      <stop offset="1" stop-color="#04aa99"/>
    </linearGradient>
    <linearGradient id="linear-gradient7" x1="69.11" y1="14.45" x2="68.85" y2="22.09" gradientTransform="translate(0 142.36) scale(1 -1)" gradientUnits="userSpaceOnUse">
      <stop offset="0" stop-color="#3caa9f"/>
      <stop offset=".05" stop-color="#3caa9f"/>
      <stop offset=".13" stop-color="#37bdb0"/>
      <stop offset=".22" stop-color="#13b1a2"/>
      <stop offset=".32" stop-color="#249c90"/>
      <stop offset=".41" stop-color="#27b7a8"/>
      <stop offset=".52" stop-color="#0f9184"/>
      <stop offset=".66" stop-color="#1ccfbd"/>
      <stop offset="1" stop-color="#04aa99"/>
    </linearGradient>
    <linearGradient id="linear-gradient8" x1="93.83" y1="12.54" x2="91.62" y2="32.46" gradientTransform="translate(0 142.36) scale(1 -1)" gradientUnits="userSpaceOnUse">
      <stop offset="0" stop-color="#3caa9f"/>
      <stop offset=".05" stop-color="#3caa9f"/>
      <stop offset=".13" stop-color="#37bdb0"/>
      <stop offset=".22" stop-color="#13b1a2"/>
      <stop offset=".32" stop-color="#249c90"/>
      <stop offset=".41" stop-color="#27b7a8"/>
      <stop offset=".52" stop-color="#0f9184"/>
      <stop offset=".66" stop-color="#1ccfbd"/>
      <stop offset="1" stop-color="#04aa99"/>
    </linearGradient>
    <linearGradient id="linear-gradient9" x1="115.57" y1="22.97" x2="108.62" y2="50.95" gradientTransform="translate(0 142.36) scale(1 -1)" gradientUnits="userSpaceOnUse">
      <stop offset="0" stop-color="#3caa9f"/>
      <stop offset=".05" stop-color="#3caa9f"/>
      <stop offset=".13" stop-color="#37bdb0"/>
      <stop offset=".22" stop-color="#13b1a2"/>
      <stop offset=".32" stop-color="#249c90"/>
      <stop offset=".41" stop-color="#27b7a8"/>
      <stop offset=".52" stop-color="#0f9184"/>
      <stop offset=".66" stop-color="#1ccfbd"/>
      <stop offset="1" stop-color="#04aa99"/>
    </linearGradient>
    <linearGradient id="linear-gradient10" x1="130.03" y1="45.55" x2="116.05" y2="71.56" gradientTransform="translate(0 142.36) scale(1 -1)" gradientUnits="userSpaceOnUse">
      <stop offset="0" stop-color="#3caa9f"/>
      <stop offset=".05" stop-color="#3caa9f"/>
      <stop offset=".13" stop-color="#37bdb0"/>
      <stop offset=".22" stop-color="#13b1a2"/>
      <stop offset=".32" stop-color="#249c90"/>
      <stop offset=".41" stop-color="#27b7a8"/>
      <stop offset=".52" stop-color="#0f9184"/>
      <stop offset=".66" stop-color="#1ccfbd"/>
      <stop offset="1" stop-color="#04aa99"/>
    </linearGradient>
    <linearGradient id="linear-gradient11" x1="127.99" y1="68.2" x2="118.54" y2="95.76" gradientTransform="translate(0 142.36) scale(1 -1)" gradientUnits="userSpaceOnUse">
      <stop offset="0" stop-color="#3caa9f"/>
      <stop offset=".05" stop-color="#3caa9f"/>
      <stop offset=".13" stop-color="#37bdb0"/>
      <stop offset=".22" stop-color="#13b1a2"/>
      <stop offset=".32" stop-color="#249c90"/>
      <stop offset=".41" stop-color="#27b7a8"/>
      <stop offset=".52" stop-color="#0f9184"/>
      <stop offset=".66" stop-color="#1ccfbd"/>
      <stop offset="1" stop-color="#04aa99"/>
    </linearGradient>
    <linearGradient id="linear-gradient12" x1="116.23" y1="93.43" x2="113.29" y2="115.65" gradientTransform="translate(0 142.36) scale(1 -1)" gradientUnits="userSpaceOnUse">
      <stop offset="0" stop-color="#3caa9f"/>
      <stop offset=".05" stop-color="#3caa9f"/>
      <stop offset=".13" stop-color="#37bdb0"/>
      <stop offset=".22" stop-color="#13b1a2"/>
      <stop offset=".32" stop-color="#249c90"/>
      <stop offset=".41" stop-color="#27b7a8"/>
      <stop offset=".52" stop-color="#0f9184"/>
      <stop offset=".66" stop-color="#1ccfbd"/>
      <stop offset="1" stop-color="#04aa99"/>
    </linearGradient>
    <linearGradient id="linear-gradient13" x1="97.02" y1="113.2" x2="96.18" y2="126.69" gradientTransform="translate(0 142.36) scale(1 -1)" gradientUnits="userSpaceOnUse">
      <stop offset="0" stop-color="#3caa9f"/>
      <stop offset=".05" stop-color="#3caa9f"/>
      <stop offset=".13" stop-color="#37bdb0"/>
      <stop offset=".22" stop-color="#13b1a2"/>
      <stop offset=".32" stop-color="#249c90"/>
      <stop offset=".41" stop-color="#27b7a8"/>
      <stop offset=".52" stop-color="#0f9184"/>
      <stop offset=".66" stop-color="#1ccfbd"/>
      <stop offset="1" stop-color="#04aa99"/>
    </linearGradient>
    <linearGradient id="linear-gradient14" x1="70.49" y1="110.28" x2="70.28" y2="116.18" gradientTransform="translate(0 142.36) scale(1 -1)" gradientUnits="userSpaceOnUse">
      <stop offset="0" stop-color="#3caa9f"/>
      <stop offset=".05" stop-color="#3caa9f"/>
      <stop offset=".13" stop-color="#37bdb0"/>
      <stop offset=".22" stop-color="#13b1a2"/>
      <stop offset=".32" stop-color="#249c90"/>
      <stop offset=".41" stop-color="#27b7a8"/>
      <stop offset=".52" stop-color="#0f9184"/>
      <stop offset=".66" stop-color="#1ccfbd"/>
      <stop offset="1" stop-color="#04aa99"/>
    </linearGradient>
    <linearGradient id="linear-gradient15" x1="88.95" y1="101.65" x2="87.15" y2="117.02" gradientTransform="translate(0 142.36) scale(1 -1)" gradientUnits="userSpaceOnUse">
      <stop offset="0" stop-color="#3caa9f"/>
      <stop offset=".05" stop-color="#3caa9f"/>
      <stop offset=".13" stop-color="#37bdb0"/>
      <stop offset=".22" stop-color="#13b1a2"/>
      <stop offset=".32" stop-color="#249c90"/>
      <stop offset=".41" stop-color="#27b7a8"/>
      <stop offset=".52" stop-color="#0f9184"/>
      <stop offset=".66" stop-color="#1ccfbd"/>
      <stop offset="1" stop-color="#04aa99"/>
    </linearGradient>
    <linearGradient id="linear-gradient16" x1="104.51" y1="87.49" x2="99.03" y2="108.6" gradientTransform="translate(0 142.36) scale(1 -1)" gradientUnits="userSpaceOnUse">
      <stop offset="0" stop-color="#3caa9f"/>
      <stop offset=".05" stop-color="#3caa9f"/>
      <stop offset=".13" stop-color="#37bdb0"/>
      <stop offset=".22" stop-color="#13b1a2"/>
      <stop offset=".32" stop-color="#249c90"/>
      <stop offset=".41" stop-color="#27b7a8"/>
      <stop offset=".52" stop-color="#0f9184"/>
      <stop offset=".66" stop-color="#1ccfbd"/>
      <stop offset="1" stop-color="#04aa99"/>
    </linearGradient>
    <linearGradient id="linear-gradient17" x1="115.5" y1="72.73" x2="104.75" y2="91.75" gradientTransform="translate(0 142.36) scale(1 -1)" gradientUnits="userSpaceOnUse">
      <stop offset="0" stop-color="#3caa9f"/>
      <stop offset=".05" stop-color="#3caa9f"/>
      <stop offset=".13" stop-color="#37bdb0"/>
      <stop offset=".22" stop-color="#13b1a2"/>
      <stop offset=".32" stop-color="#249c90"/>
      <stop offset=".41" stop-color="#27b7a8"/>
      <stop offset=".52" stop-color="#0f9184"/>
      <stop offset=".66" stop-color="#1ccfbd"/>
      <stop offset="1" stop-color="#04aa99"/>
    </linearGradient>
    <linearGradient id="linear-gradient18" x1="113.82" y1="53.53" x2="107.22" y2="74.21" gradientTransform="translate(0 142.36) scale(1 -1)" gradientUnits="userSpaceOnUse">
      <stop offset="0" stop-color="#3caa9f"/>
      <stop offset=".05" stop-color="#3caa9f"/>
      <stop offset=".13" stop-color="#37bdb0"/>
      <stop offset=".22" stop-color="#13b1a2"/>
      <stop offset=".32" stop-color="#249c90"/>
      <stop offset=".41" stop-color="#27b7a8"/>
      <stop offset=".52" stop-color="#0f9184"/>
      <stop offset=".66" stop-color="#1ccfbd"/>
      <stop offset="1" stop-color="#04aa99"/>
    </linearGradient>
    <linearGradient id="linear-gradient19" x1="103.94" y1="39.39" x2="101.89" y2="55.64" gradientTransform="translate(0 142.36) scale(1 -1)" gradientUnits="userSpaceOnUse">
      <stop offset="0" stop-color="#3caa9f"/>
      <stop offset=".05" stop-color="#3caa9f"/>
      <stop offset=".13" stop-color="#37bdb0"/>
      <stop offset=".22" stop-color="#13b1a2"/>
      <stop offset=".32" stop-color="#249c90"/>
      <stop offset=".41" stop-color="#27b7a8"/>
      <stop offset=".52" stop-color="#0f9184"/>
      <stop offset=".66" stop-color="#1ccfbd"/>
      <stop offset="1" stop-color="#04aa99"/>
    </linearGradient>
    <linearGradient id="linear-gradient20" x1="89.25" y1="31.56" x2="88.67" y2="41.3" gradientTransform="translate(0 142.36) scale(1 -1)" gradientUnits="userSpaceOnUse">
      <stop offset="0" stop-color="#3caa9f"/>
      <stop offset=".05" stop-color="#3caa9f"/>
      <stop offset=".13" stop-color="#37bdb0"/>
      <stop offset=".22" stop-color="#13b1a2"/>
      <stop offset=".32" stop-color="#249c90"/>
      <stop offset=".41" stop-color="#27b7a8"/>
      <stop offset=".52" stop-color="#0f9184"/>
      <stop offset=".66" stop-color="#1ccfbd"/>
      <stop offset="1" stop-color="#04aa99"/>
    </linearGradient>
    <linearGradient id="linear-gradient21" x1="71.52" y1="29.02" x2="71.32" y2="34.73" gradientTransform="translate(0 142.36) scale(1 -1)" gradientUnits="userSpaceOnUse">
      <stop offset="0" stop-color="#3caa9f"/>
      <stop offset=".05" stop-color="#3caa9f"/>
      <stop offset=".13" stop-color="#37bdb0"/>
      <stop offset=".22" stop-color="#13b1a2"/>
      <stop offset=".32" stop-color="#249c90"/>
      <stop offset=".41" stop-color="#27b7a8"/>
      <stop offset=".52" stop-color="#0f9184"/>
      <stop offset=".66" stop-color="#1ccfbd"/>
      <stop offset="1" stop-color="#04aa99"/>
    </linearGradient>
    <linearGradient id="linear-gradient22" x1="54.51" y1="27.56" x2="52.85" y2="42.5" gradientTransform="translate(0 142.36) scale(1 -1)" gradientUnits="userSpaceOnUse">
      <stop offset="0" stop-color="#3caa9f"/>
      <stop offset=".05" stop-color="#3caa9f"/>
      <stop offset=".13" stop-color="#37bdb0"/>
      <stop offset=".22" stop-color="#13b1a2"/>
      <stop offset=".32" stop-color="#249c90"/>
      <stop offset=".41" stop-color="#27b7a8"/>
      <stop offset=".52" stop-color="#0f9184"/>
      <stop offset=".66" stop-color="#1ccfbd"/>
      <stop offset="1" stop-color="#04aa99"/>
    </linearGradient>
    <linearGradient id="linear-gradient23" x1="42.26" y1="35.42" x2="37.06" y2="56.36" gradientTransform="translate(0 142.36) scale(1 -1)" gradientUnits="userSpaceOnUse">
      <stop offset="0" stop-color="#3caa9f"/>
      <stop offset=".05" stop-color="#3caa9f"/>
      <stop offset=".13" stop-color="#37bdb0"/>
      <stop offset=".22" stop-color="#13b1a2"/>
      <stop offset=".32" stop-color="#249c90"/>
      <stop offset=".41" stop-color="#27b7a8"/>
      <stop offset=".52" stop-color="#0f9184"/>
      <stop offset=".66" stop-color="#1ccfbd"/>
      <stop offset="1" stop-color="#04aa99"/>
    </linearGradient>
    <linearGradient id="linear-gradient24" x1="36.21" y1="51.8" x2="25.73" y2="71.24" gradientTransform="translate(0 142.36) scale(1 -1)" gradientUnits="userSpaceOnUse">
      <stop offset="0" stop-color="#3caa9f"/>
      <stop offset=".05" stop-color="#3caa9f"/>
      <stop offset=".13" stop-color="#37bdb0"/>
      <stop offset=".22" stop-color="#13b1a2"/>
      <stop offset=".32" stop-color="#249c90"/>
      <stop offset=".41" stop-color="#27b7a8"/>
      <stop offset=".52" stop-color="#0f9184"/>
      <stop offset=".66" stop-color="#1ccfbd"/>
      <stop offset="1" stop-color="#04aa99"/>
    </linearGradient>
    <linearGradient id="linear-gradient25" x1="33.62" y1="69.51" x2="26.55" y2="90.17" gradientTransform="translate(0 142.36) scale(1 -1)" gradientUnits="userSpaceOnUse">
      <stop offset="0" stop-color="#3caa9f"/>
      <stop offset=".05" stop-color="#3caa9f"/>
      <stop offset=".13" stop-color="#37bdb0"/>
      <stop offset=".22" stop-color="#13b1a2"/>
      <stop offset=".32" stop-color="#249c90"/>
      <stop offset=".41" stop-color="#27b7a8"/>
      <stop offset=".52" stop-color="#0f9184"/>
      <stop offset=".66" stop-color="#1ccfbd"/>
      <stop offset="1" stop-color="#04aa99"/>
    </linearGradient>
    <linearGradient id="linear-gradient26" x1="38.32" y1="88.14" x2="36.12" y2="104.76" gradientTransform="translate(0 142.36) scale(1 -1)" gradientUnits="userSpaceOnUse">
      <stop offset="0" stop-color="#3caa9f"/>
      <stop offset=".05" stop-color="#3caa9f"/>
      <stop offset=".13" stop-color="#37bdb0"/>
      <stop offset=".22" stop-color="#13b1a2"/>
      <stop offset=".32" stop-color="#249c90"/>
      <stop offset=".41" stop-color="#27b7a8"/>
      <stop offset=".52" stop-color="#0f9184"/>
      <stop offset=".66" stop-color="#1ccfbd"/>
      <stop offset="1" stop-color="#04aa99"/>
    </linearGradient>
    <linearGradient id="linear-gradient27" x1="51.15" y1="102.91" x2="50.51" y2="113.05" gradientTransform="translate(0 142.36) scale(1 -1)" gradientUnits="userSpaceOnUse">
      <stop offset="0" stop-color="#3caa9f"/>
      <stop offset=".05" stop-color="#3caa9f"/>
      <stop offset=".13" stop-color="#37bdb0"/>
      <stop offset=".22" stop-color="#13b1a2"/>
      <stop offset=".32" stop-color="#249c90"/>
      <stop offset=".41" stop-color="#27b7a8"/>
      <stop offset=".52" stop-color="#0f9184"/>
      <stop offset=".66" stop-color="#1ccfbd"/>
      <stop offset="1" stop-color="#04aa99"/>
    </linearGradient>
    <mask id="mask" x="-.98" y="-1" width="142" height="142" maskUnits="userSpaceOnUse">
      <g id="path-67-inside-1_410_26">
        <path class="st1" d="M70.02,0C108.68,0,140.02,31.34,140.02,70s-31.34,70-70,70S.02,108.66.02,70,31.36,0,70.02,0Z"/>
      </g>
    </mask>
    <linearGradient id="New_Gradient_Swatch" data-name="New Gradient Swatch" x1="41.63" y1="71.43" x2="98.45" y2="71.43" gradientUnits="userSpaceOnUse">
      <stop offset="0" stop-color="#3caa9f"/>
      <stop offset=".09" stop-color="#099183"/>
      <stop offset=".21" stop-color="#1d988b"/>
      <stop offset=".31" stop-color="#1b9285"/>
      <stop offset=".43" stop-color="#1c9a8d"/>
      <stop offset=".64" stop-color="#21bcac"/>
      <stop offset=".78" stop-color="#0faa9a"/>
      <stop offset="1" stop-color="#009484"/>
    </linearGradient>
  </defs>
  <path class="st30" d="M56.35,18.38s.04-.17.17-.43c.12-.25.35-.64.69-1.06.35-.42.83-.86,1.41-1.29.29-.2.61-.33.96-.54.33-.13.72-.31,1.09-.39.76-.23,1.57-.33,2.41-.32.84-.03,1.69.08,2.54.25.84.2,1.74.4,2.57.73.84.32,1.68.62,2.52.94.84.29,1.62.56,2.49.66.85.17,1.72.25,2.54.23.84-.03,1.68-.15,2.45-.37.8-.23,1.54-.53,2.21-.93,1.32-.77,2.4-1.77,3.05-2.58.68-.78,1.02-1.33,1.02-1.33,0,0-.25.6-.83,1.53-.6.89-1.57,2.19-2.99,3.25-.71.54-1.52.98-2.4,1.33-.87.33-1.8.56-2.73.68-.93.03-1.89.08-2.81-.08-.92-.12-1.85-.4-2.73-.69-.83-.33-1.66-.66-2.48-1.01-.8-.33-1.62-.58-2.4-.84-.8-.2-1.57-.4-2.33-.48-.76-.05-1.48-.08-2.17,0-.69.11-1.32.28-1.89.53-.55.25-1.01.6-1.37.93-.73.68-1.01,1.26-1.01,1.26Z"/>
  <path class="st3" d="M35.52,29.43s-.03-.15-.03-.45c0-.28.03-.73.17-1.24.13-.53.36-1.18.71-1.79.19-.28.41-.56.64-.9.25-.25.51-.56.81-.81.59-.54,1.26-.98,2.02-1.33.76-.36,1.58-.65,2.42-.86.85-.17,1.73-.4,2.62-.42.91-.08,1.77-.17,2.66-.23.91-.11,1.73-.2,2.54-.48.84-.23,1.65-.53,2.4-.9.75-.39,1.46-.84,2.05-1.38.61-.53,1.16-1.12,1.58-1.81.89-1.26,1.41-2.6,1.65-3.61.27-1,.37-1.63.37-1.63,0,0,.03.64-.12,1.71-.13,1.09-.45,2.67-1.29,4.22-.4.81-.94,1.54-1.58,2.24-.63.68-1.38,1.29-2.17,1.78-.81.41-1.68.86-2.58,1.12-.87.28-1.84.45-2.74.56-.88.05-1.78.11-2.66.17-.88.03-1.72.13-2.54.25-.8.17-1.6.31-2.29.58-.72.27-1.38.57-1.97.93-.56.37-1.08.82-1.46,1.3-.39.45-.67.96-.84,1.41-.37.92-.37,1.57-.37,1.57Z"/>
  <path class="st2" d="M21.49,48.38s-.09-.15-.23-.42c-.12-.25-.31-.68-.39-1.18-.12-.56-.19-1.21-.12-1.91.04-.36.12-.7.2-1.1.08-.33.2-.72.35-1.09.31-.73.73-1.43,1.28-2.06.53-.68,1.13-1.26,1.81-1.82.69-.5,1.4-1.1,2.17-1.53.8-.44,1.54-.89,2.32-1.34.77-.48,1.48-.93,2.1-1.51.68-.57,1.26-1.18,1.77-1.83.51-.68.96-1.39,1.28-2.14.31-.76.55-1.51.64-2.3.24-1.51.12-2.95-.11-3.96-.17-1.02-.37-1.63-.37-1.63,0,0,.31.56.65,1.61.33,1.01.75,2.59.64,4.36,0,.89-.19,1.79-.45,2.7-.28.86-.69,1.74-1.2,2.52-.55.73-1.13,1.51-1.84,2.14-.67.61-1.46,1.18-2.22,1.66-.79.45-1.58.89-2.34,1.29-.79.43-1.49.88-2.17,1.35-.65.48-1.3.96-1.82,1.49-.55.53-1.01,1.1-1.38,1.69-.35.6-.63,1.21-.76,1.79-.15.6-.19,1.16-.15,1.63.05,1.02.35,1.61.35,1.61Z"/>
  <path class="st5" d="M16.99,71.49s-.15-.08-.39-.29c-.21-.16-.56-.46-.84-.89-.36-.45-.71-1.01-.96-1.69-.12-.33-.17-.66-.28-1.04-.08-.37-.13-.76-.15-1.16-.04-.78.03-1.61.25-2.42.2-.82.48-1.63.84-2.42.4-.76.79-1.61,1.32-2.31.52-.73,1-1.49,1.5-2.22.48-.76.93-1.46,1.24-2.24.37-.82.63-1.63.81-2.44.17-.82.27-1.66.23-2.46-.05-.81-.16-1.62-.41-2.36-.44-1.45-1.17-2.72-1.81-3.53-.6-.84-1.04-1.33-1.04-1.33,0,0,.52.4,1.26,1.18.76.76,1.8,2.02,2.48,3.65.4.82.6,1.69.77,2.64.11.9.11,1.86,0,2.79-.17.89-.39,1.86-.75,2.72-.32.85-.83,1.69-1.29,2.44-.52.74-1.04,1.5-1.54,2.2-.53.7-.98,1.39-1.4,2.14-.37.69-.77,1.39-1,2.14-.25.69-.43,1.43-.52,2.1-.05.68-.04,1.35.09,1.94.12.58.32,1.12.56,1.54.51.88,1.01,1.3,1.01,1.3Z"/>
  <path class="st10" d="M22.9,94.29s-.17-.03-.47-.08c-.27-.08-.72-.21-1.14-.45-.52-.25-1.08-.61-1.58-1.13-.25-.27-.45-.52-.72-.81-.23-.31-.44-.62-.64-.98-.36-.7-.64-1.47-.8-2.27-.19-.85-.27-1.69-.28-2.56.03-.86.03-1.78.2-2.66.16-.89.25-1.77.39-2.63.12-.9.21-1.71.16-2.59-.03-.86-.13-1.71-.33-2.52-.2-.82-.48-1.61-.85-2.34-.4-.7-.84-1.38-1.38-1.94-1.04-1.13-2.24-1.98-3.17-2.43-.91-.5-1.5-.73-1.5-.73,0,0,.65.12,1.66.5,1.01.37,2.49,1.08,3.81,2.23.72.58,1.26,1.29,1.84,2.09.49.76.91,1.62,1.21,2.5.23.9.45,1.86.48,2.79.08.89,0,1.89-.08,2.75-.17.89-.32,1.81-.48,2.63-.19.88-.27,1.73-.33,2.54-.03.81-.08,1.59.03,2.36.07.76.24,1.45.44,2.12.24.62.56,1.25.93,1.71.35.49.77.88,1.16,1.17.84.57,1.46.73,1.46.73Z"/>
  <path class="st9" d="M38.07,112.31s-.16.05-.45.13c-.28.03-.73.15-1.24.11-.56-.03-1.24-.13-1.9-.33-.33-.13-.63-.29-1-.44-.33-.2-.68-.4-1-.61-.64-.49-1.22-1.06-1.7-1.74-.53-.68-.97-1.39-1.37-2.18-.35-.78-.75-1.61-.95-2.44-.24-.9-.55-1.73-.8-2.59-.28-.85-.55-1.63-.97-2.39-.4-.77-.88-1.5-1.4-2.15-.52-.64-1.14-1.21-1.76-1.73-.68-.45-1.37-.89-2.09-1.14-1.44-.6-2.88-.84-3.91-.86-1.04-.05-1.68,0-1.68,0,0,0,.64-.16,1.72-.25,1.09-.11,2.72-.11,4.39.41.91.19,1.7.57,2.56,1.06.77.46,1.52,1.06,2.18,1.74.57.7,1.2,1.45,1.62,2.31.48.77.81,1.69,1.1,2.51.24.88.49,1.77.75,2.59.2.86.48,1.63.77,2.42.32.76.63,1.5,1.04,2.15.39.62.85,1.19,1.32,1.71.48.44,1.04.9,1.58,1.14.52.29,1.09.47,1.56.54.97.16,1.62.03,1.62.03Z"/>
  <path class="st6" d="M59.55,122.06s-.12.11-.33.31c-.25.19-.61.45-1.1.64-.51.23-1.16.44-1.85.52-.35.05-.69,0-1.09.05-.39-.05-.76-.08-1.16-.13-.79-.16-1.57-.41-2.29-.84-.77-.36-1.48-.85-2.18-1.37-.67-.57-1.37-1.14-1.92-1.82-.61-.7-1.22-1.33-1.84-1.99-.61-.65-1.2-1.22-1.9-1.71-.69-.52-1.44-.98-2.18-1.35-.73-.36-1.57-.62-2.33-.8-.83-.13-1.61-.21-2.38-.16-1.56.11-2.94.52-3.9.93-.94.4-1.52.7-1.52.7,0,0,.51-.41,1.45-.96.93-.54,2.41-1.25,4.13-1.53.91-.21,1.8-.21,2.76-.16.92.13,1.85.33,2.73.65.84.39,1.72.82,2.48,1.4.76.49,1.44,1.17,2.08,1.79.6.7,1.2,1.37,1.77,2.02.56.7,1.14,1.3,1.76,1.87.6.52,1.2,1.04,1.86,1.47.63.39,1.3.73,1.94.98.61.19,1.32.36,1.93.36.57.04,1.16-.04,1.61-.2.97-.25,1.49-.68,1.49-.68Z"/>
  <path class="st8" d="M83.14,121.65s-.05.16-.19.41c-.13.27-.33.68-.71,1.04-.36.43-.84.92-1.44,1.28-.31.21-.63.32-1,.49-.33.16-.69.29-1.08.41-.77.19-1.6.32-2.44.21-.85,0-1.69-.11-2.56-.31-.84-.21-1.72-.42-2.5-.78-.85-.39-1.66-.68-2.52-1.01-.83-.33-1.61-.62-2.46-.76-.85-.17-1.72-.25-2.56-.25-.83-.03-1.68.08-2.45.25-.8.27-1.54.49-2.22.88-1.38.76-2.44,1.75-3.1,2.52-.71.76-1.08,1.3-1.08,1.3,0,0,.28-.6.89-1.5.6-.88,1.64-2.15,3.06-3.13.73-.6,1.56-.96,2.42-1.33.89-.28,1.8-.52,2.76-.6.91,0,1.89,0,2.82.21.91.09,1.81.41,2.66.69.84.38,1.68.73,2.48,1.06.8.39,1.58.68,2.38.96.79.21,1.54.41,2.32.49.76.11,1.49.13,2.18.08.65-.11,1.34-.24,1.9-.52.53-.24,1.04-.52,1.37-.84.76-.66,1.04-1.26,1.04-1.26Z"/>
  <path class="st7" d="M104.26,111.12s.01.19.01.49c-.01.29-.01.73-.19,1.25-.15.52-.4,1.14-.76,1.77-.2.28-.43.52-.69.85-.24.27-.5.57-.81.84-.58.49-1.3.96-2.06,1.24-.8.36-1.58.6-2.46.84-.87.16-1.74.33-2.6.33-.93.03-1.8.11-2.69.19-.92.05-1.76.13-2.58.39-.84.19-1.64.49-2.41.84-.73.33-1.48.82-2.09,1.29-.63.57-1.18,1.14-1.62,1.77-.93,1.28-1.45,2.6-1.73,3.61-.29.98-.41,1.63-.41,1.63,0,0,0-.65.16-1.74.16-1.06.53-2.67,1.41-4.17.41-.84.97-1.51,1.61-2.22.68-.65,1.42-1.25,2.24-1.71.83-.39,1.72-.85,2.64-1.04.87-.28,1.81-.41,2.7-.52.92,0,1.84-.05,2.7-.08.87,0,1.73-.08,2.54-.19.8-.16,1.58-.28,2.32-.52.73-.25,1.4-.56,1.98-.9.56-.33,1.12-.78,1.5-1.28.37-.41.69-.9.85-1.35.44-.92.44-1.59.44-1.59Z"/>
  <path class="st4" d="M118.77,92.58s.09.13.23.41c.12.27.31.68.37,1.22.09.52.13,1.2.07,1.91-.04.33-.16.68-.24,1.06-.09.37-.21.73-.37,1.09-.33.7-.76,1.43-1.35,2.03-.54.66-1.16,1.24-1.85,1.81-.72.49-1.44,1.04-2.21,1.43-.84.41-1.56.85-2.36,1.29-.8.44-1.5.88-2.14,1.45-.68.55-1.26,1.2-1.81,1.79-.53.65-.99,1.4-1.33,2.1-.32.76-.6,1.5-.71,2.26-.29,1.57-.2,2.99-.01,4,.16,1.01.32,1.63.32,1.63,0,0-.25-.53-.58-1.61-.33-1.04-.67-2.62-.53-4.36.01-.93.23-1.82.51-2.7.33-.88.73-1.74,1.28-2.51.57-.7,1.17-1.5,1.94-2.04.64-.65,1.44-1.17,2.21-1.65.83-.39,1.62-.85,2.4-1.25.8-.36,1.52-.8,2.21-1.26.65-.47,1.32-.88,1.88-1.45.54-.54,1.03-1.09,1.4-1.66.35-.57.67-1.17.81-1.79.17-.54.23-1.14.2-1.58-.01-1.04-.32-1.63-.32-1.63Z"/>
  <path class="st17" d="M123.87,69.6s.15.08.39.25c.21.2.56.48.87.96.31.45.65,1.02.88,1.69.11.33.16.68.25,1.08.07.36.12.76.13,1.14,0,.8-.07,1.63-.33,2.39-.23.85-.52,1.63-.9,2.46-.43.73-.85,1.54-1.37,2.22-.58.73-1.04,1.46-1.56,2.18-.53.73-.99,1.43-1.32,2.26-.39.76-.62,1.58-.85,2.39-.21.8-.31,1.66-.32,2.43.05.86.15,1.63.36,2.39.39,1.5,1.11,2.75,1.72,3.59.59.85,1,1.35,1,1.35,0,0-.49-.43-1.24-1.21-.75-.8-1.76-2.1-2.37-3.71-.4-.85-.59-1.74-.72-2.64-.07-.96-.07-1.89.09-2.86.2-.86.41-1.81.85-2.67.31-.86.83-1.66,1.3-2.42.56-.73,1.09-1.46,1.61-2.16.57-.68,1.03-1.38,1.46-2.09.37-.69.8-1.37,1.05-2.1.25-.73.45-1.43.56-2.11.07-.65.08-1.38-.05-1.97-.08-.56-.28-1.12-.52-1.51-.44-.93-.97-1.33-.97-1.33Z"/>
  <path class="st16" d="M118.57,46.67s.16,0,.47.08c.25.08.71.17,1.17.48.47.28,1.02.65,1.53,1.13.21.28.43.56.68.86.23.31.44.65.61.98.33.7.65,1.49.75,2.3.17.88.23,1.69.23,2.59-.05.85-.09,1.78-.27,2.63-.2.89-.31,1.74-.47,2.64-.16.86-.27,1.71-.23,2.59,0,.84.12,1.69.27,2.52.16.78.45,1.63.77,2.34.41.73.85,1.43,1.36,1.97,1,1.21,2.2,2.02,3.09,2.54.88.5,1.49.78,1.49.78,0,0-.64-.17-1.65-.57-1.01-.39-2.49-1.12-3.73-2.32-.73-.6-1.28-1.3-1.78-2.09-.49-.81-.89-1.66-1.14-2.59-.21-.88-.43-1.86-.4-2.82-.08-.89.03-1.82.13-2.7.19-.89.36-1.79.52-2.67.23-.84.35-1.69.44-2.5.04-.82.09-1.61.04-2.36-.09-.76-.21-1.49-.43-2.14-.21-.61-.52-1.26-.88-1.77-.32-.48-.76-.88-1.13-1.13-.8-.65-1.44-.78-1.44-.78Z"/>
  <path class="st13" d="M103.86,28.24s.15-.08.45-.15c.29-.01.72-.13,1.28-.05.55.03,1.21.15,1.88.37.32.13.63.31.99.48.33.2.68.4.97.62.61.5,1.24,1.08,1.66,1.77.52.7.93,1.41,1.33,2.24.31.78.67,1.63.89,2.44.21.93.47,1.71.72,2.59.24.86.49,1.69.9,2.44.36.76.84,1.46,1.35,2.16.48.65,1.1,1.27,1.68,1.78.71.48,1.38.93,2.09,1.21,1.41.68,2.85.88,3.89.96,1.01.08,1.69.05,1.69.05,0,0-.65.13-1.73.23-1.09.05-2.74.03-4.39-.5-.91-.23-1.7-.65-2.52-1.16-.77-.5-1.49-1.1-2.14-1.82-.56-.7-1.17-1.46-1.57-2.36-.45-.77-.76-1.66-1.04-2.51-.23-.9-.45-1.77-.68-2.62-.16-.86-.41-1.65-.71-2.44-.31-.76-.59-1.49-.97-2.14-.4-.66-.82-1.26-1.28-1.77-.46-.45-1.02-.93-1.57-1.21-.51-.28-1.06-.48-1.5-.53-1.01-.25-1.66-.09-1.66-.09Z"/>
  <path class="st12" d="M82.66,17.94s.11-.15.35-.31c.24-.17.6-.42,1.12-.61.52-.2,1.14-.4,1.85-.48.35,0,.71.03,1.09.03.4.03.79.05,1.16.15.79.17,1.58.4,2.28.85.77.43,1.44.88,2.16,1.46.61.56,1.32,1.18,1.86,1.82.59.73,1.18,1.35,1.77,2.03.6.7,1.17,1.29,1.86,1.79.67.56,1.38.98,2.14,1.41.72.37,1.54.68,2.29.88.85.15,1.64.25,2.41.2,1.56,0,2.95-.43,3.91-.82.94-.36,1.56-.66,1.56-.66,0,0-.55.39-1.46.92-.96.53-2.46,1.25-4.18,1.43-.93.2-1.81.17-2.76.07-.93-.12-1.84-.33-2.74-.73-.79-.4-1.69-.82-2.42-1.46-.76-.48-1.44-1.2-2.02-1.81-.6-.73-1.18-1.41-1.76-2.09-.52-.7-1.09-1.33-1.69-1.91-.59-.53-1.18-1.1-1.8-1.51-.64-.43-1.29-.76-1.92-1.01-.63-.23-1.33-.39-1.94-.42-.59-.05-1.16.03-1.58.15-1.01.23-1.53.65-1.53.65Z"/>
  <path class="st19" d="M80.9,31.34s-.04-.08-.12-.31c-.09-.17-.27-.46-.52-.77-.25-.32-.61-.68-1.06-.98-.21-.16-.47-.27-.72-.39-.25-.11-.53-.24-.83-.31-.56-.17-1.16-.25-1.78-.25s-1.28.08-1.92.21c-.63.13-1.29.29-1.92.53-.63.23-1.24.49-1.88.72-.63.21-1.22.4-1.88.5-.64.13-1.28.17-1.9.17-.63-.05-1.25-.13-1.84-.31-.57-.16-1.14-.37-1.64-.69-1-.57-1.78-1.33-2.28-1.91-.51-.6-.77-1-.77-1,0,0,.19.42.63,1.1.45.69,1.17,1.66,2.24,2.43.53.42,1.14.74,1.78,1.01.65.27,1.34.41,2.04.49.71.04,1.42.07,2.1-.04.69-.08,1.4-.29,2.05-.49.61-.27,1.22-.5,1.85-.74.6-.27,1.21-.48,1.78-.68.61-.13,1.2-.28,1.76-.35.56-.04,1.12-.04,1.64,0,.51.07.97.23,1.4.43.41.17.75.44,1.04.69.55.53.75.92.75.92Z"/>
  <path class="st14" d="M96.52,39.64v-.36c0-.2,0-.53-.12-.9-.12-.41-.29-.89-.53-1.35-.13-.23-.31-.42-.48-.66-.19-.2-.37-.41-.61-.61-.44-.4-.96-.74-1.53-1.01-.56-.27-1.17-.46-1.81-.62-.61-.12-1.28-.31-1.96-.36-.68-.04-1.33-.09-1.97-.17-.68-.05-1.3-.13-1.93-.32-.63-.19-1.24-.4-1.8-.66-.56-.29-1.1-.64-1.53-1.06-.45-.39-.87-.84-1.17-1.34-.67-.93-1.05-1.95-1.24-2.71-.21-.73-.27-1.22-.27-1.22,0,0-.01.49.08,1.31.12.8.35,1.99.97,3.13.29.61.71,1.14,1.18,1.67.48.52,1.04.96,1.62,1.33.6.31,1.25.66,1.92.85.65.19,1.37.32,2.05.42.67.01,1.34.07,2,.12.65,0,1.29.11,1.89.21.61.11,1.21.21,1.73.4.53.2,1.04.45,1.48.72.4.28.8.61,1.08.96.31.36.52.72.65,1.06.29.69.29,1.18.29,1.18Z"/>
  <path class="st15" d="M106.99,53.81s.07-.08.19-.29c.09-.2.21-.53.29-.89.07-.44.11-.92.08-1.43-.03-.28-.08-.53-.15-.81-.07-.27-.16-.57-.27-.84-.23-.53-.56-1.09-.96-1.53-.39-.53-.85-.94-1.36-1.37-.53-.41-1.04-.84-1.62-1.14-.59-.33-1.16-.69-1.73-1.01-.58-.36-1.12-.69-1.57-1.13-.51-.45-.95-.92-1.33-1.41-.4-.48-.72-1.01-.96-1.57-.21-.58-.39-1.16-.48-1.7-.16-1.16-.08-2.24.09-3,.12-.74.28-1.22.28-1.22,0,0-.23.42-.51,1.21-.24.74-.55,1.95-.48,3.24,0,.69.13,1.38.33,2.03.23.65.53,1.33.89,1.9.41.53.85,1.12,1.37,1.59.53.46,1.13.89,1.69,1.25.6.33,1.18.66,1.74.97.6.29,1.12.68,1.64,1,.51.36.99.72,1.37,1.14.4.39.75.82,1.03,1.26.25.42.46.88.57,1.34.12.41.16.85.12,1.22-.05.72-.28,1.18-.28,1.18Z"/>
  <path class="st18" d="M110.37,71.12s.11-.07.29-.23c.15-.12.41-.33.61-.65.29-.35.55-.78.75-1.26.08-.25.11-.52.21-.78.03-.27.09-.57.09-.88.03-.58-.04-1.21-.21-1.78-.13-.64-.35-1.24-.61-1.81-.31-.6-.6-1.21-.98-1.75-.39-.56-.76-1.1-1.13-1.67-.36-.54-.71-1.08-.92-1.69-.29-.58-.47-1.2-.6-1.81-.15-.62-.21-1.25-.19-1.83.04-.62.13-1.21.31-1.75.32-1.09.87-2.07,1.34-2.66.48-.64.8-.98.8-.98,0,0-.4.29-.95.89-.58.54-1.34,1.5-1.86,2.71-.31.62-.44,1.28-.59,1.99-.08.68-.08,1.38,0,2.07.15.69.31,1.37.57,2.02.25.64.61,1.27.94,1.87.4.53.8,1.09,1.17,1.61.4.52.76,1.08,1.05,1.62.29.53.57,1.04.75,1.61.19.49.31,1.02.39,1.54.04.53.04,1.05-.08,1.47-.09.44-.21.84-.43,1.17-.36.64-.73.96-.73.96Z"/>
  <path class="st11" d="M105.94,88.17s.12,0,.35-.07c.2-.04.53-.12.85-.31.37-.21.81-.48,1.2-.84.19-.2.33-.43.53-.64.19-.23.32-.46.47-.73.29-.53.49-1.09.62-1.73.13-.6.2-1.22.21-1.9-.03-.64-.03-1.31-.16-1.98-.12-.66-.2-1.31-.31-1.98-.08-.65-.16-1.29-.13-1.95.04-.64.13-1.26.28-1.87.16-.61.35-1.21.64-1.77.29-.49.61-1.01,1.03-1.43.77-.84,1.68-1.47,2.37-1.83.69-.36,1.14-.53,1.14-.53,0,0-.48.12-1.25.4-.76.29-1.88.8-2.86,1.67-.53.41-.93.94-1.37,1.54-.36.56-.67,1.21-.89,1.87-.16.65-.33,1.39-.36,2.07-.07.69,0,1.42.05,2.1.13.64.25,1.33.36,1.95.13.64.2,1.26.27,1.89.01.61.05,1.2-.03,1.78-.07.57-.21,1.12-.35,1.61-.17.45-.4.92-.69,1.26-.25.36-.59.66-.87.89-.63.41-1.1.52-1.1.52Z"/>
  <path class="st20" d="M94.59,101.67s.12.03.32.11c.23.03.56.11.96.05.41,0,.91-.05,1.41-.24.27-.08.48-.21.77-.31.24-.16.49-.32.72-.47.48-.36.92-.81,1.26-1.33.41-.46.75-1.01,1.05-1.58.24-.62.56-1.25.71-1.9.19-.64.39-1.24.59-1.89.23-.62.43-1.25.74-1.79.28-.6.65-1.14,1.04-1.58.39-.52.84-.97,1.32-1.33.52-.35,1.03-.64,1.56-.86,1.09-.44,2.16-.6,2.94-.64.79-.04,1.26,0,1.26,0,0,0-.49-.12-1.32-.19-.8-.09-2.02-.09-3.29.27-.67.16-1.28.49-1.92.84-.57.33-1.13.8-1.64,1.33-.43.49-.88,1.06-1.21,1.69-.35.58-.6,1.29-.81,1.9-.17.62-.37,1.3-.56,1.95-.16.62-.35,1.22-.57,1.79-.27.54-.47,1.12-.8,1.61-.28.44-.64.9-.98,1.26-.35.35-.75.65-1.17.86-.4.24-.83.36-1.16.41-.73.13-1.22.03-1.22.03Z"/>
  <path class="st26" d="M78.51,108.99s.09.05.25.21c.17.15.47.36.83.46.39.19.88.33,1.4.39.27.03.51,0,.81.03.31-.03.57-.05.88-.08.56-.11,1.17-.31,1.7-.62.59-.29,1.1-.65,1.64-1.01.49-.44,1.01-.85,1.44-1.38.44-.52.89-.98,1.34-1.47.47-.49.89-.96,1.42-1.33.51-.36,1.06-.7,1.64-.98.56-.27,1.18-.49,1.74-.6.63-.09,1.21-.15,1.8-.09,1.17.03,2.2.36,2.91.68.71.28,1.14.5,1.14.5,0,0-.37-.31-1.08-.72-.72-.41-1.81-.93-3.1-1.14-.68-.16-1.36-.16-2.06-.11-.68.11-1.37.27-2.05.49-.63.29-1.29.62-1.84,1.06-.59.37-1.1.86-1.58,1.3-.41.52-.88,1.06-1.33,1.5-.4.54-.84.98-1.28,1.43-.45.41-.91.8-1.41,1.09-.47.31-.96.57-1.44.74-.47.16-.99.27-1.44.27-.44.05-.88-.05-1.22-.13-.72-.21-1.12-.49-1.12-.49Z"/>
  <path class="st25" d="M60.84,108.67s.04.08.13.3c.11.19.27.49.53.76.27.31.64.68,1.08.96.23.13.48.24.75.36.27.13.53.24.83.29.56.16,1.18.27,1.8.21.65-.03,1.28-.11,1.93-.23.63-.19,1.29-.33,1.89-.6.63-.31,1.24-.52,1.88-.76.61-.27,1.2-.46,1.85-.57.63-.16,1.28-.21,1.92-.21s1.25.08,1.84.21c.6.16,1.17.36,1.68.65,1.01.57,1.81,1.3,2.33,1.89.49.58.76.97.76.97,0,0-.2-.44-.67-1.12-.45-.7-1.21-1.63-2.29-2.36-.56-.44-1.16-.7-1.81-.96-.67-.24-1.36-.41-2.06-.46-.69,0-1.44-.03-2.12.16-.68.07-1.34.31-2,.51-.61.29-1.25.56-1.85.81-.59.29-1.18.52-1.78.7-.57.15-1.14.33-1.73.38-.55.08-1.12.08-1.62.05-.49-.08-1.01-.21-1.42-.39-.4-.19-.79-.42-1.02-.62-.59-.52-.8-.94-.8-.94Z"/>
  <path class="st22" d="M45.04,100.77s-.01.16-.01.38c.01.21.01.52.15.9.09.39.27.88.56,1.33.15.24.33.44.52.65.19.21.39.44.6.62.45.36.97.7,1.56.93.59.29,1.17.46,1.84.6.64.16,1.3.29,1.94.29.71,0,1.34.08,2.02.13.68.05,1.3.08,1.93.29.63.16,1.22.41,1.8.62.55.24,1.1.6,1.57.97.47.41.89.85,1.21,1.33.69.9,1.09,1.91,1.29,2.7.23.73.31,1.22.31,1.22,0,0,0-.49-.11-1.33-.12-.81-.4-1.99-1.05-3.11-.32-.64-.76-1.15-1.21-1.65-.52-.52-1.06-.96-1.68-1.33-.63-.25-1.29-.61-1.98-.74-.63-.24-1.34-.28-2.01-.39-.68,0-1.37-.03-2.02-.08-.67.03-1.29-.05-1.92-.13-.59-.11-1.18-.19-1.73-.36-.53-.24-1.04-.44-1.48-.68-.43-.28-.84-.6-1.13-.96-.29-.32-.52-.7-.64-1.01-.32-.7-.32-1.22-.32-1.22Z"/>
  <path class="st21" d="M34.18,86.91s-.07.09-.17.28c-.08.24-.23.52-.27.93-.08.39-.12.89-.05,1.43.03.25.11.52.17.8.07.25.16.57.27.82.25.52.59,1.09,1.01,1.47.43.52.88.96,1.38,1.38.55.36,1.08.81,1.68,1.09.61.28,1.16.62,1.74.96.59.33,1.13.68,1.61,1.09.51.44.94.88,1.36,1.35.39.46.75,1.04,1,1.58.23.54.44,1.14.52,1.69.21,1.17.15,2.23.01,2.99-.12.74-.25,1.21-.25,1.21,0,0,.2-.41.44-1.19.25-.77.51-1.97.41-3.27-.01-.69-.17-1.34-.4-2.02-.23-.68-.53-1.33-.94-1.89-.41-.53-.87-1.1-1.44-1.54-.49-.46-1.09-.85-1.66-1.22-.61-.31-1.21-.61-1.8-.96-.6-.25-1.13-.57-1.66-.9-.48-.36-.97-.7-1.4-1.12-.4-.39-.77-.84-1.05-1.22-.27-.44-.49-.89-.6-1.35-.12-.43-.16-.85-.13-1.2,0-.76.23-1.2.23-1.2Z"/>
  <path class="st23" d="M30.36,69.69s-.11.04-.28.2-.43.37-.65.72c-.24.33-.48.74-.67,1.24-.07.27-.11.54-.17.84-.04.27-.09.57-.09.84,0,.58.05,1.21.25,1.81.15.64.36,1.21.65,1.82.32.54.64,1.16,1.02,1.66.43.57.77,1.09,1.17,1.63.39.57.75,1.09.98,1.69.28.58.47,1.2.64,1.79.16.62.23,1.25.24,1.85-.04.62-.11,1.21-.27,1.78-.29,1.12-.83,2.05-1.28,2.67-.44.65-.76,1.01-.76,1.01,0,0,.36-.31.93-.9.55-.57,1.3-1.55,1.77-2.76.29-.64.43-1.29.52-1.99.07-.72.07-1.38-.04-2.11-.16-.65-.32-1.39-.64-2.03-.24-.62-.63-1.21-.99-1.78-.41-.57-.81-1.1-1.21-1.63-.41-.49-.77-1.01-1.09-1.57-.28-.49-.6-1.01-.79-1.55-.2-.53-.33-1.09-.41-1.59-.07-.5-.07-1.04.03-1.46.07-.45.23-.85.39-1.14.35-.69.73-1,.73-1Z"/>
  <path class="st24" d="M34.34,52.52s-.11,0-.33.04c-.21.08-.53.16-.88.37-.37.24-.79.5-1.17.88-.16.17-.32.4-.51.65-.17.21-.35.46-.45.73-.27.53-.51,1.1-.56,1.71-.12.66-.17,1.28-.17,1.97.04.64.08,1.33.21,1.93.13.68.23,1.31.33,1.98.12.64.2,1.28.17,1.95,0,.64-.08,1.26-.2,1.9-.12.58-.35,1.21-.57,1.74-.31.53-.63,1.06-1.02,1.46-.73.9-1.64,1.51-2.32,1.9-.67.39-1.12.6-1.12.6,0,0,.48-.12,1.24-.42.76-.29,1.85-.85,2.8-1.74.56-.45.96-.98,1.33-1.58.37-.6.67-1.22.87-1.94.15-.65.31-1.38.29-2.09.07-.68-.01-1.37-.11-2.03-.15-.69-.27-1.34-.4-1.97-.16-.65-.24-1.29-.31-1.94-.03-.57-.08-1.17-.03-1.73.07-.58.16-1.13.31-1.61.17-.46.39-.96.67-1.33.23-.37.56-.66.84-.84.61-.46,1.09-.6,1.09-.6Z"/>
  <path class="st28" d="M45.35,38.75s-.12-.05-.35-.09c-.21-.05-.55-.12-.96-.05-.41.04-.91.11-1.4.28-.24.09-.48.23-.73.36-.27.15-.51.27-.75.46-.45.37-.92.81-1.24,1.33-.39.54-.71,1.06-1,1.69-.23.57-.51,1.21-.67,1.83-.15.68-.36,1.26-.53,1.91-.19.66-.37,1.25-.68,1.83-.28.57-.63,1.1-1.01,1.62-.36.48-.83.94-1.25,1.34-.53.36-1.04.68-1.57.92-1.05.48-2.13.62-2.9.7-.76.04-1.26.04-1.26.04,0,0,.49.09,1.29.15.81.05,2.05.05,3.27-.36.69-.19,1.28-.5,1.88-.88.6-.37,1.13-.81,1.62-1.34.41-.54.87-1.1,1.17-1.78.35-.56.59-1.25.77-1.87.17-.69.33-1.33.52-1.97.12-.64.32-1.25.53-1.85.24-.53.44-1.1.73-1.59.31-.48.63-.93.96-1.31.33-.35.76-.68,1.17-.89.37-.23.8-.39,1.12-.42.76-.16,1.25-.05,1.25-.05Z"/>
  <path class="st27" d="M61.2,31.03s-.07-.08-.27-.24c-.17-.15-.44-.33-.83-.46-.39-.16-.85-.31-1.38-.36-.27,0-.53.03-.84.03-.28.03-.57.03-.84.11-.59.16-1.18.32-1.69.66-.59.31-1.1.62-1.62,1.09-.48.43-1,.89-1.4,1.37-.45.53-.88,1.01-1.33,1.51-.44.52-.88.96-1.41,1.34-.49.4-1.02.74-1.58,1.05-.55.27-1.14.5-1.72.62-.64.11-1.22.21-1.8.16-1.17,0-2.21-.32-2.94-.6-.71-.28-1.16-.49-1.16-.49,0,0,.4.29,1.1.68.71.42,1.84.94,3.11,1.09.69.15,1.36.13,2.06.05.69-.11,1.37-.27,2.05-.57.6-.31,1.26-.61,1.81-1.08.57-.37,1.06-.88,1.52-1.37.45-.54.89-1.06,1.32-1.57.39-.52.83-.98,1.25-1.42.45-.39.89-.8,1.36-1.12.49-.31.97-.57,1.42-.8.48-.13,1.01-.29,1.46-.29.44-.05.88.03,1.2.11.75.16,1.13.49,1.13.49Z"/>
  <path class="st31" d="M72.32,22.06c0,1.05-.85,1.91-1.93,1.91s-1.96-.86-1.96-1.91c0-1.12.89-1.94,1.96-1.94s1.93.82,1.93,1.94Z"/>
  <path class="st31" d="M63.92,22.48c.23,1.04-.48,1.99-1.53,2.19-1.08.16-2.09-.53-2.22-1.58-.23-1,.47-2.03,1.53-2.19,1.06-.16,2.05.48,2.22,1.58Z"/>
  <path class="st31" d="M55.76,24.29c.36.97-.15,2.06-1.13,2.43-1.05.44-2.16-.13-2.5-1.1-.36-.98.16-2.1,1.16-2.51,1.02-.39,2.14.15,2.48,1.18Z"/>
  <path class="st31" d="M48.08,27.51c.48.89.19,2.03-.71,2.63-.94.5-2.13.2-2.66-.72-.59-.89-.27-2.18.67-2.66.97-.49,2.16-.2,2.7.74Z"/>
  <path class="st31" d="M40.97,32.03c.71.78.6,1.94-.23,2.71-.83.64-2.02.6-2.72-.21-.68-.88-.57-2.09.21-2.72.87-.65,2.09-.65,2.73.23Z"/>
  <path class="st31" d="M34.82,37.69c.83.68.92,1.85.25,2.64-.72.88-1.93,1.05-2.74.31-.83-.64-.88-1.87-.24-2.74.68-.78,1.89-.93,2.73-.21Z"/>
  <path class="st31" d="M29.75,44.31c.95.56,1.21,1.73.71,2.62-.55.96-1.7,1.24-2.62.78-.96-.54-1.26-1.78-.75-2.67.59-.92,1.7-1.26,2.66-.73Z"/>
  <path class="st31" d="M25.9,51.75c1.04.37,1.53,1.46,1.18,2.47-.39,1.02-1.53,1.51-2.49,1.1-1.04-.32-1.53-1.42-1.16-2.42.36-.98,1.49-1.51,2.46-1.16Z"/>
  <path class="st31" d="M23.44,59.73c1.01.19,1.7,1.18,1.52,2.19-.13,1.12-1.17,1.81-2.18,1.61-1.08-.19-1.78-1.18-1.62-2.24.2-1.06,1.24-1.74,2.29-1.55Z"/>
  <path class="st31" d="M22.36,68.03c1.08,0,1.92.82,1.92,1.94s-.84,1.9-1.92,1.9c-1.08.05-1.97-.86-1.97-1.9.04-1.05.89-1.94,1.97-1.94Z"/>
  <path class="st31" d="M22.72,76.37c1.06-.16,2.04.53,2.24,1.57.21,1.12-.52,2.01-1.52,2.27-1.08.2-2.12-.53-2.29-1.65-.13-1,.55-2.05,1.57-2.19Z"/>
  <path class="st31" d="M24.57,84.52c1-.36,2.08.11,2.48,1.21.39,1.01-.17,2.03-1.14,2.47-1.01.41-2.12-.19-2.46-1.22-.37-.98.12-2.03,1.13-2.46Z"/>
  <path class="st31" d="M28.78,95.88c1.08,0,1.96-.87,1.96-1.95s-.88-1.95-1.96-1.95-1.96.87-1.96,1.95.88,1.95,1.96,1.95Z"/>
  <path class="st31" d="M32.29,99.31c.87-.7,2.06-.57,2.74.25.71.78.59,1.97-.21,2.67-.84.74-2.05.61-2.73-.2-.64-.88-.59-2.1.2-2.72Z"/>
  <path class="st31" d="M38,105.46c.72-.82,1.85-.96,2.74-.2.81.65.87,1.9.23,2.62-.68.88-1.89.93-2.73.24-.79-.68-.92-1.77-.24-2.66Z"/>
  <path class="st31" d="M44.66,110.55c.59-.93,1.68-1.33,2.65-.73.94.52,1.21,1.69.75,2.59-.52.97-1.73,1.28-2.68.7-.93-.52-1.25-1.73-.72-2.56Z"/>
  <path class="st31" d="M52.07,114.38c.4-1.06,1.44-1.53,2.5-1.17,1,.37,1.53,1.41,1.18,2.42-.33,1.06-1.45,1.58-2.48,1.22-1-.44-1.54-1.54-1.21-2.47Z"/>
  <path class="st31" d="M60.1,116.85c.21-1.06,1.2-1.79,2.26-1.53,1.08.11,1.73,1.14,1.56,2.15-.17,1.09-1.18,1.78-2.22,1.63-1.06-.21-1.76-1.22-1.6-2.26Z"/>
  <path class="st31" d="M68.39,117.94c.05-1.09.89-1.9,2-1.99,1.04,0,1.86.9,1.93,1.95,0,1.09-.94,1.99-1.93,1.99-1.1-.01-2-.97-2-1.95Z"/>
  <path class="st31" d="M76.78,117.53c-.13-1.11.47-2.06,1.61-2.22,1.08-.27,2.04.54,2.21,1.45.25,1.12-.53,2.15-1.53,2.34-1.09.16-2.1-.53-2.29-1.57Z"/>
  <path class="st31" d="M84.94,115.69c-.31-1.06.13-2.04,1.2-2.47,1.01-.47,2.06.16,2.44,1.04.45,1.06-.09,2.21-1.16,2.59-1,.29-2.08-.15-2.48-1.16Z"/>
  <path class="st31" d="M92.72,112.47c-.55-.97-.25-2.03.72-2.66.92-.6,2-.21,2.54.68.63.89.29,2.15-.6,2.72-.99.46-2.16.16-2.66-.74Z"/>
  <path class="st31" d="M99.78,107.98c-.68-.84-.63-1.99.2-2.72.87-.76,1.97-.54,2.72.21.77.88.61,2.1-.21,2.78-.84.56-2.02.5-2.7-.27Z"/>
  <path class="st31" d="M105.89,102.3c-.75-.76-.93-1.9-.21-2.72.73-.84,1.9-.84,2.68-.25.94.62.94,1.95.33,2.78-.78.74-1.97.88-2.79.2Z"/>
  <path class="st31" d="M110.96,95.63c-.94-.57-1.26-1.69-.69-2.67.55-.96,1.74-1.14,2.6-.73,1.04.49,1.28,1.71.8,2.72-.65.89-1.7,1.22-2.7.68Z"/>
  <path class="st31" d="M114.84,88.19c-1.07-.44-1.5-1.43-1.12-2.48.28-1.05,1.44-1.46,2.37-1.14,1.13.36,1.58,1.51,1.25,2.51-.44.93-1.56,1.53-2.5,1.12Z"/>
  <path class="st31" d="M117.35,80.21c-1.05-.27-1.72-1.1-1.65-2.27.21-1.02,1.28-1.67,2.26-1.46,1.08.04,1.77,1.09,1.65,2.19-.28,1.05-1.25,1.74-2.26,1.54Z"/>
  <path class="st31" d="M118.4,71.93c-1.11-.05-1.89-.78-1.96-1.95,0-1.05.89-1.85,1.9-1.85,1.14-.09,2.04.8,2.04,1.85-.07,1.09-1.05,1.95-1.98,1.95Z"/>
  <path class="st31" d="M118,63.61c-1.09.11-1.97-.53-2.3-1.63-.13-1.06.6-1.98,1.6-2.22,1.11-.23,2.04.5,2.32,1.51.12,1.16-.67,2.07-1.61,2.34Z"/>
  <path class="st31" d="M116.19,55.42c-1.01.31-2.05-.15-2.45-1.2-.49-.96.16-2.05,1.03-2.42,1.03-.46,2.2.12,2.58,1.1.33,1-.19,2.22-1.16,2.51Z"/>
  <path class="st31" d="M112.94,47.71c-.93.46-2.05.21-2.68-.78-.57-.82-.19-1.99.69-2.58,1-.57,2.14-.23,2.7.69.48.89.12,2.15-.72,2.67Z"/>
  <path class="st31" d="M108.47,40.64c-.89.74-2,.57-2.79-.21-.72-.89-.48-1.94.21-2.67.82-.78,2.06-.62,2.79.16.61.85.49,2.09-.21,2.72Z"/>
  <path class="st31" d="M102.75,34.53c-.8.81-1.78.85-2.77.23-.8-.64-.83-1.89-.2-2.67.68-.92,1.97-1,2.7-.36.83.8.91,2.03.27,2.8Z"/>
  <path class="st31" d="M96.06,29.43c-.55.92-1.64,1.22-2.62.72-.92-.49-1.18-1.66-.72-2.63.48-.94,1.7-1.24,2.66-.81.98.65,1.22,1.85.68,2.72Z"/>
  <path class="st31" d="M88.6,25.62c-.4,1-1.38,1.42-2.46,1.09-1.02-.29-1.42-1.37-1.17-2.39.35-1.1,1.5-1.59,2.52-1.21,1.06.41,1.54,1.57,1.12,2.51Z"/>
  <path class="st31" d="M80.62,23.1c-.2,1.09-1.12,1.65-2.24,1.54-1.06-.13-1.7-1.13-1.58-2.16.13-1.1,1.21-1.83,2.26-1.69,1.13.27,1.78,1.37,1.56,2.31Z"/>
  <path class="st31" d="M70.39,115.01c-24.92,0-45.14-20.16-45.14-45.04s20.22-45.05,45.14-45.05,45.12,20.21,45.12,45.05-20.23,45.04-45.12,45.04ZM70.39,26.28c-24.2,0-43.82,19.6-43.82,43.69s19.63,43.72,43.82,43.72,43.79-19.56,43.79-43.72-19.61-43.69-43.79-43.69Z"/>
  <g class="st0">
    <path class="st31" d="M141.02,70C141.02,30.79,109.23-1,70.02-1V1c38.11,0,69,30.89,69,69h2ZM70.02,141c39.21,0,71-31.79,71-71h-2c0,38.11-30.89,69-69,69v2ZM-.98,70c0,39.21,31.79,71,71,71v-2C31.91,139,1.02,108.11,1.02,70H-.98ZM70.02-1C30.81-1-.98,30.79-.98,70h2C1.02,31.89,31.91,1,70.02,1V-1Z"/>
  </g>
  <g>
    <path d="M71.46,66.67c15.19,19.85,18.55,22.86,23.54,22.86.75,0,1.51-.07,2.4-.14,1.23-.14,1.51.68.14.96-1.85.27-4.24.41-5.68.41-8.83,0-10.33-.55-25.39-19.92l-10.33,8.62v1.44c0,2.94.21,4.45.68,5.48,1.09,1.92,3.83,2.87,5.68,2.87.89,0,1.64.07,1.64.55,0,.41-.48.48-1.37.48-3.15,0-6.64-.14-9.72-.14s-6.3.14-9.99.14c-.89,0-1.44-.07-1.44-.48,0-.48.82-.55,1.71-.55,1.85,0,4.45-.96,5.54-2.87.62-1.03.89-2.53.89-5.48v-19.44c0-2.94-.27-4.45-.89-5.47-1.09-1.92-3.7-3.01-5.54-3.01-.89,0-1.71-.07-1.71-.41,0-.41.55-.48,1.44-.48,3.15,0,6.71.21,9.79.21,3.29,0,6.3-.21,9.92-.21.89,0,1.37.07,1.37.48,0,.34-.75.41-1.64.41-1.85,0-4.59,1.09-5.68,3.01-.48,1.03-.68,2.53-.68,5.47v14.71l20.74-17.31c2.33-1.92,3.49-3.42,3.49-4.38s-1.16-1.51-3.56-1.51c-.55,0-.89-.27-.89-.41,0-.27.27-.48.82-.48,2.87,0,5.75.21,8.55.21s5.48-.21,8.28-.21c.55,0,.75.14.75.48,0,.14-.21.41-.75.41-4.24.41-7.8,1.64-14.71,7.53l-7.39,6.16Z"/>
    <path class="st29" d="M71.46,66.67c15.19,19.85,18.55,22.86,23.54,22.86.75,0,1.51-.07,2.4-.14,1.23-.14,1.51.68.14.96-1.85.27-4.24.41-5.68.41-8.83,0-10.33-.55-25.39-19.92l-10.33,8.62v1.44c0,2.94.21,4.45.68,5.48,1.09,1.92,3.83,2.87,5.68,2.87.89,0,1.64.07,1.64.55,0,.41-.48.48-1.37.48-3.15,0-6.64-.14-9.72-.14s-6.3.14-9.99.14c-.89,0-1.44-.07-1.44-.48,0-.48.82-.55,1.71-.55,1.85,0,4.45-.96,5.54-2.87.62-1.03.89-2.53.89-5.48v-19.44c0-2.94-.27-4.45-.89-5.47-1.09-1.92-3.7-3.01-5.54-3.01-.89,0-1.71-.07-1.71-.41,0-.41.55-.48,1.44-.48,3.15,0,6.71.21,9.79.21,3.29,0,6.3-.21,9.92-.21.89,0,1.37.07,1.37.48,0,.34-.75.41-1.64.41-1.85,0-4.59,1.09-5.68,3.01-.48,1.03-.68,2.53-.68,5.47v14.71l20.74-17.31c2.33-1.92,3.49-3.42,3.49-4.38s-1.16-1.51-3.56-1.51c-.55,0-.89-.27-.89-.41,0-.27.27-.48.82-.48,2.87,0,5.75.21,8.55.21s5.48-.21,8.28-.21c.55,0,.75.14.75.48,0,.14-.21.41-.75.41-4.24.41-7.8,1.64-14.71,7.53l-7.39,6.16Z"/>
  </g>
</svg>