<?xml version="1.0" encoding="UTF-8"?>
<svg id="Layer_1" xmlns="http://www.w3.org/2000/svg" version="1.1" viewBox="0 0 1107.6 310.87">
  <!-- Generator: Adobe Illustrator 29.5.0, SVG Export Plug-In . SVG Version: 2.1.0 Build 137)  -->
  <defs>
    <style>
      .st0 {
        fill: #231f20;
      }
    </style>
  </defs>
  <path class="st0" d="M115.89,162.29c2.68,0,4.02,3.16,4.02,9.47,0,9.57-4.73,18.5-14.2,26.82-9.47,8.32-20.32,12.48-32.56,12.48-7.84,0-15.4-1.91-22.66-5.74-15.49-8.41-23.24-23.04-23.24-43.89,0-14.73,4.02-29.16,12.05-43.32,11.09-19.31,27.01-34.61,47.77-45.9,20.75-11.28,40.97-16.93,60.67-16.93,14.34,0,26.11,3.16,35.29,9.47,10.33,7.08,15.49,17.6,15.49,31.56,0,17.79-8.61,45.66-25.82,83.62-17.21,37.97-25.82,59.43-25.82,64.4,0,1.53.48,2.01,1.43,1.43,4.97-3.25,27.78-29.21,68.42-77.89,40.64-48.67,68.9-78.75,84.77-90.22,14.15-10.52,25.96-18.41,35.43-23.67,9.47-5.26,19.17-7.89,29.12-7.89,2.68,0,4.68.1,6.02.29,5.16.39,7.75,3.06,7.75,8.03,0,2.49-.86,3.73-2.58,3.73-.19,0-1.53-.43-4.02-1.29-2.49-.86-4.59-1.29-6.31-1.29-26.78,0-62.83,24.2-108.15,72.58-17.02,18.17-37.72,42.65-62.11,73.44-24.38,30.79-38.78,47.43-43.18,49.92-15.49,8.79-24.2,13.2-26.11,13.2-.57,0-.86-.96-.86-2.87,0-6.31,5.35-22.38,16.07-48.2,4.4-9.94,10.8-24.86,19.22-44.75l13.2-38.73c4.59-13,6.89-22.47,6.89-28.4,0-13.2-3.83-23.24-11.48-30.12-7.65-6.89-18.65-10.33-32.99-10.33s-29.74,5.07-46.19,15.2c-17.79,11.48-31.08,25.63-39.88,42.46-8.8,16.83-13.2,31.08-13.2,42.74s2.39,20.85,7.17,27.54c7.84,10.9,18.26,16.35,31.27,16.35,9.94,0,18.74-3.3,26.39-9.9,7.65-6.6,11.48-14.96,11.48-25.1,0-2.1-.24-4.02-.72-5.74-.48-1.72.24-2.58,2.15-2.58Z"/>
  <path class="st0" d="M245.27,248.06c-2.11,0-4.02-.29-5.74-.86-12.24-3.44-18.36-10.33-18.36-20.66,0-13.38,8.42-28.88,25.25-46.47,16.83-17.59,31.94-26.39,45.33-26.39,4.4,0,7.98,1.2,10.76,3.59,2.77,2.39,4.16,5.31,4.16,8.75,0,10.71-8.08,20.94-24.24,30.7-16.16,9.75-29.31,14.63-39.45,14.63-1.53,0-2.87-.19-4.02-.57-2.87,5.16-4.3,10.61-4.3,16.35,0,9.95,4.73,14.92,14.2,14.92s21.75-6.41,36.86-19.22c11.66-9.37,21.61-19.31,29.84-29.83,1.72-2.3,3.2-3.44,4.45-3.44s1.86.57,1.86,1.72-.77,2.77-2.3,4.88c-10.33,13.58-22.76,25.63-37.29,36.15-14.54,10.52-26.87,15.78-37.01,15.78ZM299.49,165.44c0-2.29-2.44-3.44-7.32-3.44s-11.81,3.73-20.8,11.19c-12.05,9.95-21.42,20.37-28.11,31.27,1.15.39,2.39.57,3.73.57,7.27,0,16.97-3.87,29.12-11.62,12.14-7.75,19.75-16.21,22.81-25.39.38-.96.57-1.82.57-2.58Z"/>
  <path class="st0" d="M378.38,201.3c2.29-3.06,4.11-4.59,5.45-4.59s2.01.57,2.01,1.72-3.92,6.12-11.76,14.92c-19.13,21.04-35.1,31.56-47.91,31.56-6.31,0-11.67-1.48-16.06-4.45-4.4-2.96-6.6-7.55-6.6-13.77s1.62-13.43,4.88-21.66c5.54-13,14.44-29.36,26.68-49.06,22.38-36.33,38.25-54.51,47.62-54.51,1.91,0,3.87.72,5.88,2.15s3.11,3.01,3.3,4.73c-4.4,5.93-12.86,17.31-25.39,34.14-12.53,16.83-21.18,28.93-25.96,36.29-4.78,7.36-8.37,12.86-10.76,16.5-2.39,3.64-4.16,6.45-5.31,8.46s-2.49,4.64-4.02,7.89c-3.25,6.5-4.88,12.62-4.88,18.36s3.16,8.61,9.47,8.61,14.44-3.34,24.38-10.04c9.94-6.69,19.6-15.78,28.97-27.25Z"/>
  <path class="st0" d="M384.4,247.49c-9.75,0-14.63-6.31-14.63-18.93,0-10.33,5.64-24.62,16.93-42.89,11.28-18.26,20.37-27.49,27.25-27.68,1.91,0,4.06.77,6.46,2.3,2.39,1.53,3.59,3.06,3.59,4.59-.96,1.34-2.11,2.82-3.44,4.45-1.34,1.63-2.77,3.4-4.3,5.31-1.53,1.91-3.64,4.64-6.31,8.18-2.68,3.54-5.26,6.93-7.75,10.18-14.34,18.55-21.52,31.32-21.52,38.3s2.39,10.47,7.17,10.47c4.02,0,9.47-2.2,16.35-6.6,16.07-9.94,28.78-20.84,38.15-32.7,3.44-4.4,5.78-6.6,7.03-6.6s1.86.77,1.86,2.29-2.2,4.59-6.6,9.18c-4.4,4.59-7.89,8.23-10.47,10.9-2.58,2.68-4.35,4.45-5.31,5.31-.96.86-2.73,2.49-5.31,4.88-2.58,2.39-4.54,4.07-5.88,5.02-1.34.96-3.25,2.39-5.74,4.3-2.49,1.91-4.69,3.3-6.6,4.16-1.91.86-4.11,1.86-6.6,3.01-4.02,1.72-8.8,2.58-14.34,2.58ZM425.42,135.32c0-5.35,3.63-8.03,10.9-8.03,2.87,0,5.59.91,8.18,2.73,2.58,1.82,3.87,3.97,3.87,6.46s-1.2,4.64-3.59,6.45c-2.39,1.82-5.02,2.73-7.89,2.73s-5.5-1.05-7.89-3.16c-2.39-2.1-3.59-4.49-3.59-7.17Z"/>
  <path class="st0" d="M503.67,225.11c0-20.66,6.05-41.12,18.15-61.39-13.96-8.99-20.94-22.28-20.94-39.88,0-21.23,9.27-40.06,27.83-56.52,21.04-18.55,48.2-27.83,81.47-27.83,15.3,0,31.75,2.19,49.34,6.56,4.02.96,21.13,8.32,51.35,22.11,30.22,13.79,51.92,20.68,65.12,20.68,8.79,0,15.39-2.48,19.79-7.46,2.29-2.48,3.44-5.16,3.44-8.03s-1.25-5.45-3.73-7.75c-1.34-1.91-2.01-3.16-2.01-3.73s.52-.86,1.58-.86,2.87,1.68,5.45,5.02c2.58,3.35,3.87,7.27,3.87,11.76s-3.01,8.85-9.04,13.05c-6.02,4.21-13.63,6.31-22.81,6.31-14.34,0-36.63-6.93-66.84-20.8-30.22-13.86-49.2-21.56-56.95-23.09-7.75-1.53-16.59-2.29-26.54-2.29-39.59,0-70.76,12.82-93.52,38.44-2.68,2.87-5.84,8.66-9.47,17.36-3.64,8.71-5.45,17.07-5.45,25.1,0,11.09,3.93,19.7,11.79,25.82,9.97-14.53,21.76-26.11,35.37-34.71s27.42-12.91,41.42-12.91c17.25,0,25.88,6.7,25.88,20.08,0,16.07-9.42,33.52-28.26,52.36s-36.29,28.26-52.36,28.26c-10.33,0-15.49-4.4-15.49-13.2,0-3.06.81-5.74,2.44-8.03,1.62-2.29,3.59-3.16,5.88-2.58l-.57,6.6c0,2.87,4.4,4.3,13.2,4.3,13,0,26.72-6.69,41.17-20.08,14.44-13.38,23.19-26.49,26.25-39.3.76-2.87,1.15-5.45,1.15-7.75,0-8.61-5.51-12.91-16.54-12.91s-22.44,4.21-34.23,12.62c-11.79,8.42-22.86,19.51-33.22,33.28.77.39,3.74,1.15,8.92,2.29l17.26.57c8.44.39,12.66,1.34,12.66,2.87,0,2.68-4.03,4.02-12.08,4.02h-1.73c-11.7,0-21.29-1.43-28.76-4.3-14.77,22.57-22.15,43.32-22.15,62.25,0,24.48,9.47,36.72,28.4,36.72,21.42,0,43.7-14.92,66.84-44.75l56.23-83.77c21.04-30.6,39.3-46.28,54.79-47.05l10.9,2.58c3.44,1.91,5.16,4.78,5.16,8.61s-.96,5.74-2.87,5.74l-9.18-1.43c-13.2,0-30.12,14.25-50.78,42.74l-57.09,79.75c-24.48,28.5-47.91,42.74-70.29,42.74-15.3,0-25.83-4.11-31.59-12.34-5.76-8.23-8.64-20.18-8.64-35.86Z"/>
  <path class="st0" d="M760.21,183.52c0,6.7-6.41,17.89-19.22,33.56-15.11,18.55-28.02,27.83-38.73,27.83h-4.59c-4.98,0-8.89-2.58-11.76-7.75-2.29-3.63-3.44-7.65-3.44-12.05,0-11.48,8.36-27.59,25.1-48.34,16.73-20.75,30.27-31.13,40.59-31.13,9.75,0,14.63,5.16,14.63,15.49,0,2.68-.48,6.12-1.43,10.33.19.57,2.01.86,5.45.86s8.7-1.82,15.78-5.45c-.19,3.25-7.75,7.94-22.66,14.06.19.77.29,1.63.29,2.58ZM741.56,168.89c-6.5,0-15.73,7.65-27.68,22.95-11.95,15.3-17.93,26.59-17.93,33.85s2.3,10.9,6.89,10.9c8.22,0,18.65-7.46,31.27-22.38,12.62-14.92,18.93-25.63,18.93-32.13-3.06-1.72-6.88-6.12-11.48-13.2ZM750.74,131.02c-1.15,0-2.25-.81-3.3-2.44-1.05-1.62-1.58-3.01-1.58-4.16,0-2.68,2.39-5.59,7.17-8.75,4.78-3.16,7.79-4.73,9.04-4.73s1.96.1,2.15.29v.29l-3.16,4.02-4.02,9.18c-1.72,4.21-3.83,6.31-6.31,6.31ZM779.14,131.02c-1.15,0-2.29-.81-3.44-2.44-1.15-1.62-1.72-3.01-1.72-4.16,0-2.68,2.39-5.59,7.17-8.75,4.78-3.16,7.79-4.73,9.04-4.73s1.96.1,2.15.29v-.29c.19.19.29.39.29.57-1.15,1.53-2.29,2.87-3.44,4.02l-4.02,9.18c-1.72,4.21-3.73,6.31-6.02,6.31Z"/>
  <path class="st0" d="M824.47,245.77c-14.34,0-21.52-7.93-21.52-23.81,0-8.03,2.1-16.83,6.31-26.39,4.2-9.56,8.79-17.59,13.77-24.1-.96.19-2.2.29-3.73.29-4.59,0-8.42-3.25-11.48-9.75l-21.23,27.54c-11.86,14.73-18.75,22.09-20.66,22.09-.95,0-1.43-.38-1.43-1.15,0-1.91,1.62-4.68,4.88-8.32,16.64-19.32,28.4-35.67,35.29-49.06,4.4-16.64,9.94-24.96,16.64-24.96,4.4,0,6.6,1.91,6.6,5.74s-2.39,8.71-7.17,14.63l-6.89,9.18c0,4.02,2.96,6.02,8.89,6.02,3.44,0,7.27-1.24,11.48-3.73l7.46-4.59c.38-.19,1.34-.29,2.87-.29s3.16.96,4.88,2.87c1.72,1.91,2.3,3.64,1.72,5.16l-19.79,24.96c-12.24,15.68-18.36,28.07-18.36,37.15s4.2,13.63,12.62,13.63,19.6-4.68,32.42-14.06c7.65-5.54,14.63-11.76,20.94-18.65,5.93-6.89,9.18-10.33,9.75-10.33,1.34,0,2.01.72,2.01,2.15s-.86,3.11-2.58,5.02l-9.18,10.33c-5.16,5.36-10.9,10.52-17.21,15.49-15.11,11.29-27.54,16.93-37.29,16.93Z"/>
  <path class="st0" d="M893.6,248.06c-2.11,0-4.02-.29-5.74-.86-12.24-3.44-18.36-10.33-18.36-20.66,0-13.38,8.42-28.88,25.25-46.47,16.83-17.59,31.94-26.39,45.33-26.39,4.4,0,7.98,1.2,10.76,3.59,2.77,2.39,4.16,5.31,4.16,8.75,0,10.71-8.08,20.94-24.24,30.7-16.16,9.75-29.31,14.63-39.45,14.63-1.53,0-2.87-.19-4.02-.57-2.87,5.16-4.3,10.61-4.3,16.35,0,9.95,4.73,14.92,14.2,14.92s21.75-6.41,36.86-19.22c11.66-9.37,21.61-19.31,29.83-29.83,1.72-2.3,3.2-3.44,4.45-3.44s1.87.57,1.87,1.72-.77,2.77-2.29,4.88c-10.33,13.58-22.76,25.63-37.29,36.15-14.54,10.52-26.87,15.78-37.01,15.78ZM947.82,165.44c0-2.29-2.44-3.44-7.32-3.44s-11.81,3.73-20.8,11.19c-12.05,9.95-21.42,20.37-28.11,31.27,1.15.39,2.39.57,3.73.57,7.27,0,16.97-3.87,29.12-11.62,12.14-7.75,19.75-16.21,22.81-25.39.38-.96.57-1.82.57-2.58Z"/>
  <path class="st0" d="M998.89,153.68c5.16,0,7.75,2.01,7.75,6.02,0,1.15-.29,2.29-.86,3.44-17.21,23.91-27.54,41.98-30.98,54.22,44.56-44.56,71.62-66.84,81.19-66.84.96-.19,1.82-.29,2.58-.29,5.35,0,8.03,2.39,8.03,7.17,0,.96-.19,1.91-.57,2.87-.39.96-4.21,6.12-11.48,15.49-8.42,9.95-15.54,19.51-21.37,28.69-5.84,9.18-8.75,16.83-8.75,22.95s1.34,9.18,4.02,9.18c8.41,0,23.04-11.57,43.89-34.71.38-.38,1.05-1.24,2.01-2.58,2.87-3.44,4.59-5.16,5.16-5.16s.86.96.86,2.87-1.34,4.4-4.02,7.46c-23.72,26.97-40.55,40.45-50.49,40.45-9.37,0-14.06-5.16-14.06-15.49s3.82-22.18,11.48-35.57l18.36-29.84c-13.01,9.57-24.58,20.04-34.71,31.41-10.14,11.38-19.36,22.43-27.68,33.13-8.32,10.71-13.15,16.07-14.49,16.07-2.87,0-5.12-1.19-6.74-3.59-1.63-2.39-2.44-5.35-2.44-8.89s1.24-8.27,3.73-14.2c2.48-5.93,5.64-13.1,9.47-21.52l-17.21,18.07c-4.21,4.21-6.84,6.31-7.89,6.31s-1.58-.62-1.58-1.86.77-2.63,2.29-4.16c7.08-7.07,13.2-13.86,18.36-20.37,4.97-6.5,15.2-18.93,30.7-37.29,1.72-2.29,3.54-3.44,5.45-3.44Z"/>
</svg>